<?xml version="1.0" standalone="no"?>
<!DOCTYPE svg PUBLIC "-//W3C//DTD SVG 20010904//EN"
 "http://www.w3.org/TR/2001/REC-SVG-20010904/DTD/svg10.dtd">
<svg version="1.0" xmlns="http://www.w3.org/2000/svg"
 width="720.000000pt" height="720.000000pt" viewBox="0 0 720.000000 720.000000"
 preserveAspectRatio="xMidYMid meet">
<metadata>
Created by potrace 1.11, written by Peter Selinger 2001-2013
</metadata>
<g transform="translate(0.000000,720.000000) scale(0.100000,-0.100000)"
fill="#000000" stroke="none">
<path d="M4745 7186 c-90 -21 -142 -42 -220 -88 -58 -35 -203 -175 -876 -848
-793 -793 -845 -848 -896 -960 -65 -144 -76 -349 -27 -497 39 -118 95 -203
206 -314 l60 -59 244 244 c134 134 244 246 244 249 0 4 -18 25 -40 47 -22 22
-40 44 -40 47 0 3 334 340 743 749 l743 744 807 -807 806 -806 -743 -744
c-409 -408 -746 -743 -750 -743 -3 0 -24 18 -46 40 -22 22 -43 40 -46 40 -3 0
-116 -110 -251 -244 l-244 -244 72 -72 c40 -39 93 -85 118 -103 246 -169 580
-162 819 18 8 5 377 372 821 815 878 876 864 860 918 1027 44 134 40 305 -9
447 -49 140 -41 132 -977 1067 -985 984 -919 926 -1116 985 -71 22 -246 27
-320 10z"/>
<path d="M4210 5182 c-14 -2 -38 -14 -55 -27 -57 -43 -2107 -2100 -2122 -2129
-19 -36 -23 -83 -10 -121 7 -18 171 -190 433 -452 354 -354 428 -423 461 -432
39 -11 81 -5 119 17 32 18 2115 2106 2131 2136 19 36 23 83 10 121 -11 30
-806 835 -857 868 -28 17 -72 25 -110 19z"/>
<path d="M2128 4505 c-2 -2 -23 -6 -48 -9 -98 -11 -227 -68 -310 -134 -79 -63
-1615 -1605 -1649 -1655 -165 -241 -159 -569 15 -807 18 -25 423 -435 901
-911 l868 -867 85 -41 c125 -61 212 -81 340 -77 58 2 123 8 145 14 22 6 42 11
45 11 13 -2 126 54 177 88 57 37 1605 1575 1669 1658 132 169 176 434 106 635
-43 124 -101 211 -205 312 l-60 58 -243 -244 c-134 -134 -244 -247 -244 -250
0 -3 18 -23 40 -45 22 -21 40 -42 40 -46 0 -4 -334 -342 -743 -751 l-743 -743
-807 806 -806 807 742 743 c408 408 745 743 749 743 5 0 27 -19 51 -43 l44
-43 247 247 247 247 -73 72 c-118 118 -237 185 -379 216 -28 6 -196 13 -201 9z"/>
</g>
</svg>
